<svg width="38" height="38" viewBox="0 0 38 38" fill="none" xmlns="http://www.w3.org/2000/svg">
<path fill-rule="evenodd" clip-rule="evenodd" d="M17.5471 13.4223C18.6864 13.0999 18.7996 9.97452 17.7999 6.44168C16.8003 2.9088 15.0662 0.306212 13.9268 0.62862C12.7875 0.951028 12.6743 4.07634 13.6739 7.60924C14.6736 11.142 16.4077 13.7447 17.5471 13.4223ZM11.3908 9.04268C14.1419 11.4741 15.7365 14.1644 14.9523 15.0516C14.1683 15.9389 11.3023 14.6872 8.55121 12.2557C5.80006 9.82428 4.2055 7.13396 4.98965 6.2467C5.77379 5.35945 8.63969 6.61126 11.3908 9.04268ZM13.6495 17.8396C13.8296 16.6693 11.0339 15.2678 7.40505 14.7092C3.77616 14.1507 0.688366 14.6467 0.508238 15.817C0.32811 16.9873 3.12385 18.3888 6.75272 18.9473C10.3815 19.5059 13.4694 19.0099 13.6495 17.8396ZM14.0521 20.8736C14.5334 21.9556 12.204 24.0423 8.84929 25.5344C5.49461 27.0267 2.38497 27.3593 1.90374 26.2774C1.4225 25.1955 3.75189 23.1088 7.10657 21.6166C10.4613 20.1244 13.5709 19.7917 14.0521 20.8736ZM14.1835 29.9378C16.1988 26.8687 17.0301 23.8538 16.0403 23.2039C15.0505 22.554 12.6144 24.5151 10.5992 27.5842C8.58393 30.6533 7.75265 33.6681 8.74241 34.3181C9.73225 34.968 12.1683 33.0069 14.1835 29.9378ZM21.0506 30.7716C21.0865 27.1002 20.1557 24.1146 18.9717 24.103C17.7876 24.0915 16.7987 27.0584 16.7628 30.7297C16.7269 34.4012 17.6577 37.3868 18.8417 37.3984C20.0258 37.41 21.0147 34.4431 21.0506 30.7716ZM24.4775 0.734932C25.6103 1.07974 25.6619 4.20668 24.5927 7.71916C23.5235 11.2316 21.7385 13.7995 20.6057 13.4547C19.4729 13.1099 19.4214 9.98292 20.4905 6.47048C21.5597 2.958 23.3447 0.390116 24.4775 0.734932ZM29.6271 12.4652C32.4252 10.088 34.0721 7.4294 33.3054 6.52703C32.5387 5.62463 29.6489 6.8202 26.8508 9.19732C24.0527 11.5745 22.4059 14.2332 23.1725 15.1356C23.9391 16.038 26.829 14.8424 29.6271 12.4652ZM37.5967 16.1749C37.7537 17.3486 34.9309 18.6947 31.2917 19.1816C27.6525 19.6684 24.5751 19.1116 24.4181 17.938C24.2611 16.7644 27.0839 15.4183 30.7231 14.9314C34.3623 14.4446 37.4397 15.0013 37.5967 16.1749ZM35.9863 26.6128C36.4887 25.5407 34.201 23.4084 30.8763 21.8504C27.5518 20.2923 24.4493 19.8984 23.9468 20.9706C23.4443 22.0428 25.7321 24.1751 29.0567 25.7332C32.3813 27.2912 35.4838 27.6851 35.9863 26.6128ZM27.2695 27.7548C29.2238 30.863 29.9955 33.8937 28.9931 34.524C27.9907 35.1543 25.5937 33.1455 23.6394 30.0372C21.6851 26.929 20.9134 23.8983 21.9158 23.268C22.9182 22.6378 25.3151 24.6465 27.2695 27.7548Z" fill="#640EF1"/>
</svg>
